<svg width="84" height="48" viewBox="0 0 84 48" fill="none" xmlns="http://www.w3.org/2000/svg">
<g clip-path="url(#clip0_10213_197)">
<path d="M33.7852 13.1929C33.3794 9.04185 29.6799 6.0094 25.5299 6.42615C21.3954 6.84136 18.3766 10.5242 18.7809 14.6598C19.1853 18.7954 22.8601 21.8236 26.9968 21.4307C31.1489 21.0357 34.191 17.3439 33.7852 13.1929ZM28.166 8.16639C28.2581 8.16614 28.3268 8.18485 28.4124 8.20813L28.431 8.21317C28.4644 8.38118 28.4309 8.45926 28.343 8.60226C28.1892 8.85258 28.018 9.09225 27.8468 9.33196C27.5446 9.75506 27.2424 10.1783 27.0353 10.6603C26.5863 11.7055 26.6909 12.9246 26.7967 14.1564C26.8892 15.2345 26.9826 16.3224 26.7063 17.312C26.374 18.5025 25.5398 19.2812 24.4953 19.862C24.4374 19.8717 24.3735 19.8668 24.3121 19.8621C24.2992 19.8611 24.2865 19.8601 24.2739 19.8593C24.266 19.8587 24.2581 19.8583 24.2503 19.8579L24.2403 19.8388C24.1807 19.7255 24.1772 19.7187 24.2203 19.5899C24.2762 19.4229 24.3875 19.2518 24.4923 19.0907C24.5324 19.0292 24.5715 18.9691 24.6062 18.9112C24.9693 18.3063 25.3253 17.6528 25.4366 16.9468C25.5757 16.0652 25.5017 15.158 25.4276 14.2507C25.3336 13.0996 25.2397 11.948 25.5813 10.8492C26.0009 9.49907 26.9834 8.79485 28.166 8.16639Z" fill="#0B0803"/>
<path d="M51.5346 35.0922C51.0639 31.0626 47.4161 28.1774 43.3865 28.6466C39.3551 29.1158 36.4677 32.7651 36.9385 36.7967C37.4093 40.8284 41.0599 43.7143 45.091 43.2423C49.1206 42.7703 52.0052 39.1217 51.5346 35.0922ZM43.3977 30.3357C44.3726 30.2636 45.2844 30.501 46.0708 31.0858C47.3433 32.0319 47.9924 33.5956 48.2075 35.1265C48.4351 36.7421 48.4126 38.9859 47.3601 40.3388C46.7858 41.0763 46.0596 41.376 45.1604 41.4859C44.2024 41.5784 43.2437 41.3214 42.4607 40.7632C41.223 39.8703 40.5877 38.4032 40.3572 36.9333C40.0946 35.2589 40.1043 32.9156 41.1891 31.5031C41.7663 30.7517 42.4873 30.4527 43.3977 30.3357Z" fill="#0B0803"/>
<path d="M9.67462 0.367406C10.982 0.195972 12.4618 0.330432 13.7337 0.651241C14.5073 0.846345 15.2792 1.11169 16.0701 1.22297C16.5248 1.28691 17.0018 1.28179 17.4607 1.28984C17.535 2.56306 17.7806 5.614 17.6335 6.73547C17.3992 6.78091 17.2192 6.76817 16.9836 6.7361C16.7423 6.4571 16.6288 5.83264 16.4838 5.47086C15.9521 4.14414 14.9006 3.12471 13.5822 2.58393C11.9299 1.90625 9.95726 1.99337 8.32878 2.69682C6.6185 3.43564 5.22504 4.91433 4.54589 6.64632C3.49389 9.32904 3.50125 12.7702 4.68154 15.411C5.49928 17.2405 6.95402 18.8499 8.85758 19.5642C10.6748 20.2462 12.6496 20.0446 14.3902 19.2469C15.1675 18.8504 15.8862 18.2608 16.3485 17.5135C16.6101 17.0907 16.8024 16.287 17.2173 16.0141L17.3328 16.0599C17.7787 16.6232 17.9446 18.3847 18.0911 19.1425C16.4135 20.6211 14.3895 21.6016 12.1648 21.8943C9.25325 22.2767 6.21464 21.6891 3.86197 19.8736C1.72038 18.221 0.419565 15.6242 0.0979864 12.9632C-0.275765 9.87086 0.40703 6.75003 2.36431 4.28875C4.16786 2.02082 6.82068 0.694867 9.67462 0.367406Z" fill="#0B0803"/>
<path d="M64.3533 7.71232C63.5738 7.51827 62.6306 7.41351 61.8315 7.51259C59.9666 7.6958 58.372 8.4148 57.1605 9.8771C55.818 11.5152 55.1807 13.619 55.3873 15.7268C55.5729 17.5236 56.3992 19.3101 57.8328 20.4467C59.3385 21.6415 61.466 21.9783 63.3343 21.757C64.9933 21.5609 66.464 20.8445 67.4927 19.5052C67.9633 18.8932 68.3051 18.2014 68.5747 17.4809C68.5417 17.4497 68.5088 17.4174 68.4757 17.3849C68.3168 17.2285 68.1527 17.0672 67.9388 17.0023C67.9199 17.0109 67.9036 17.0177 67.8893 17.0238C67.8242 17.0512 67.798 17.0623 67.7441 17.1441C66.8569 18.4504 65.84 19.3151 64.2517 19.612C63.0136 19.8435 61.7832 19.6305 60.7446 18.9018C59.9183 18.3219 59.2663 17.4659 58.8846 16.5345C60.7839 15.4084 62.8483 14.2686 65.0333 13.821C65.4658 13.7324 65.9067 13.6827 66.3463 13.6331C66.8086 13.5809 67.2692 13.529 67.7168 13.4322C68.0173 13.3673 68.233 13.3062 68.3352 12.9878C68.5908 12.189 68.1874 10.8839 67.7848 10.1955C67.0488 8.93575 65.756 8.06136 64.3533 7.71232ZM62.4212 8.98331C62.7762 8.98541 63.1565 9.01055 63.4982 9.10495C64.0767 9.26448 64.6005 9.6072 64.8827 10.149C65.0781 10.524 65.2308 11.1251 65.0774 11.5353C64.9485 11.8798 64.6698 12.1151 64.3617 12.2972C63.9771 12.5239 63.5165 12.6697 63.0728 12.8101C62.922 12.8578 62.7731 12.9049 62.6299 12.9544C61.8546 13.2222 61.0906 13.5143 60.3518 13.8717C60.1828 13.9468 59.9693 14.0817 59.7419 14.2254C59.3147 14.4952 58.8384 14.796 58.5163 14.7908C58.344 14.6467 58.2999 14.527 58.2817 14.3104C58.162 12.8738 58.7404 11.2396 59.6697 10.1535C60.3503 9.35853 61.4184 9.06461 62.4212 8.98331Z" fill="#0B0803"/>
<path d="M78.3208 7.5752C77.769 7.49957 77.2102 7.47849 76.6541 7.51224C74.7619 7.66659 73.1617 8.35681 71.9236 9.82996C70.5615 11.4613 69.9074 13.5694 70.107 15.6855C70.2737 17.4382 71.0923 19.2307 72.4726 20.3561C73.9587 21.5679 76.1758 21.9825 78.0463 21.7703C79.711 21.5819 81.2068 20.7997 82.246 19.4782C82.7243 18.8649 83.099 18.177 83.3546 17.442C83.3223 17.414 83.2886 17.3833 83.2536 17.3514C83.0804 17.1935 82.8766 17.0078 82.6599 16.9905C81.7692 18.3321 80.7026 19.2761 79.0863 19.602C77.8685 19.8477 76.6864 19.6684 75.6408 18.9745C74.7437 18.3789 74.0911 17.5115 73.626 16.5505C75.6793 15.1536 78.2053 14.0836 80.6466 13.632C80.9493 13.5759 81.2569 13.5521 81.5645 13.5284C81.8189 13.5087 82.0734 13.489 82.3252 13.4511C82.6529 13.4017 82.9856 13.3266 83.0591 12.952C83.2657 11.8954 82.849 10.6244 82.225 9.77485C81.2839 8.49316 79.8741 7.79131 78.3208 7.5752ZM76.5176 9.03463C77.1541 8.98421 77.7739 8.95284 78.3873 9.17728C78.9756 9.39235 79.4497 9.81666 79.7053 10.3917C79.8741 10.7702 79.9476 11.194 79.7879 11.5884C79.6969 11.8111 79.5302 12.0133 79.337 12.1548C78.8744 12.4927 77.7322 12.8913 76.7386 13.2382C76.2489 13.4091 75.7952 13.5675 75.4769 13.6997C74.9662 13.9274 74.474 14.2036 73.9828 14.4792C73.7103 14.6322 73.438 14.7849 73.1631 14.9292C72.9327 13.5221 73.077 12.088 73.8431 10.8546C74.4762 9.83641 75.3684 9.29788 76.5176 9.03463Z" fill="#0B0803"/>
<path d="M29.3599 24.456C30.8659 24.4476 35.097 24.2599 36.2382 24.561C36.3339 24.692 36.3249 24.6941 36.3132 24.8573C36.0493 25.302 35.4863 25.4805 35.0958 25.7992C34.8703 25.9827 34.6668 26.2446 34.5988 26.5317C34.3468 27.5948 34.4462 28.8238 34.4453 29.9156L34.4154 34.5263C34.4075 35.6265 34.4418 36.7512 34.3129 37.8437C34.1285 39.4082 33.438 40.862 32.174 41.8361C30.5984 43.0511 28.3989 43.3214 26.4732 43.0602C24.7865 42.8319 23.141 42.1015 22.0923 40.717C21.1409 39.4614 20.8999 37.9949 21.1018 36.4599C21.1551 36.1889 21.223 35.9269 21.3202 35.6678C21.6791 34.7112 22.3812 33.9248 23.3282 33.5186C24.3283 33.09 25.5895 33.0585 26.5945 33.4913C27.0835 33.7014 27.3917 34.0634 27.5714 34.5642C27.6815 34.8702 27.7175 35.1321 27.577 35.4297C27.1718 35.8128 26.2601 35.2995 25.6937 35.4584C25.1709 35.6048 24.7713 35.9711 24.5211 36.4459C24.0866 37.2701 24.0763 38.3472 24.3869 39.2142C24.6636 39.9873 25.291 40.6113 26.0299 40.953C26.9071 41.3585 28.1405 41.46 29.057 41.119C29.7669 40.855 30.2884 40.2905 30.5747 39.5972C30.8214 38.9999 30.9371 38.3129 30.9951 37.6721C31.1262 36.2281 31.2886 27.5065 30.9705 26.5632C30.6348 25.5681 29.4908 25.5387 29.2286 24.9329C29.2287 24.7865 29.2319 24.685 29.3025 24.5568C29.3211 24.5225 29.3407 24.4896 29.3599 24.456Z" fill="#0B0803"/>
<path d="M60.4763 40.6134C61.1185 39.0237 61.6731 37.3857 62.2649 35.7757C62.7264 34.5222 63.2964 33.2252 63.5793 31.9205C63.6396 31.6425 63.6662 31.3673 63.5884 31.09C63.351 30.2426 62.2579 30.3105 62.0107 29.6558C62.045 29.5122 62.0247 29.4499 62.1619 29.3616C62.4147 29.1999 66.8778 29.183 67.4247 29.2524C67.6068 29.2755 67.7363 29.3161 67.8561 29.4625C67.8687 29.7769 67.7924 29.9205 67.5094 30.0808C67.0556 30.3372 66.4779 30.4681 66.1376 30.8897C65.6018 31.5536 63.5843 37.2344 63.0863 38.5258L61.4224 42.8425C61.0036 43.9265 60.6115 45.1051 59.9882 46.0912C59.6107 46.6878 59.1023 47.2656 58.486 47.6206C57.5869 48.1374 56.4468 48.2327 55.453 47.9533C54.6806 47.7355 53.974 47.2572 53.6042 46.5295C53.3115 45.9539 53.2394 45.1878 53.4544 44.5743C53.6147 44.117 53.9852 43.7381 54.4264 43.5414C54.7121 43.4146 55.1792 43.304 55.4747 43.4643C56.1778 43.8467 55.7198 45.1093 55.9895 45.783C56.0805 46.0092 56.2136 46.1689 56.4447 46.262C56.8207 46.4133 57.4734 46.206 57.8124 46.0414C58.958 45.4826 59.4392 43.6814 59.8201 42.5693C59.339 42.5784 58.783 42.6373 58.3089 42.5546C58.2353 42.542 58.1429 42.5224 58.0771 42.4839C57.9202 42.3929 57.8194 42.2276 57.7381 42.0693C57.3642 41.3403 57.1107 40.4929 56.8186 39.7254L54.9999 34.9395C54.6421 33.999 54.3171 33.0186 53.8781 32.1138C53.5503 31.4394 53.1133 30.7503 52.4396 30.3778C52.1056 30.1936 51.6658 30.1957 51.4396 29.8609C51.4004 29.6326 51.441 29.494 51.5117 29.2755C52.7177 29.2265 57.5659 29.1004 58.4573 29.3483C58.5064 29.5185 58.5148 29.7538 58.4475 29.9212C58.3411 30.1859 57.8292 30.2671 57.5939 30.3617C57.3397 30.4639 57.1198 30.618 57.021 30.8848C56.9125 31.1796 57.0574 31.6537 57.1422 31.9528C57.5112 33.2602 58.1065 34.5544 58.5967 35.8268C59.2095 37.4165 59.762 39.0664 60.4763 40.6134Z" fill="#0B0803"/>
<path d="M51.9417 1.55478C53.0125 1.49896 54.0286 1.63573 54.9635 2.19611C55.6463 2.60509 56.2248 3.22059 56.397 4.01683C56.4909 4.44906 56.4615 4.90678 56.21 5.28221C55.9369 5.68985 55.3851 6.00758 54.9005 6.0683C54.6092 6.10471 54.2674 6.06501 54.0342 5.87656C53.4929 5.43915 53.745 4.66118 53.642 4.0627C53.586 3.74056 53.4186 3.46948 53.1399 3.29489C52.7183 3.03039 52.0594 2.94299 51.581 3.07569C51.163 3.19152 50.8618 3.48719 50.6693 3.86837C50.0565 5.07842 50.3954 6.65998 50.7743 7.88369C52.0587 7.91556 53.3486 7.88965 54.6337 7.88846C54.6372 8.43364 54.6274 8.96972 54.586 9.51344C53.3451 9.51211 52.1014 9.49327 50.8618 9.54061C50.7827 10.8157 50.8135 12.1113 50.8058 13.3893C50.7939 15.3021 50.6055 17.4137 51.0439 19.275C51.1104 19.4474 51.184 19.6098 51.2736 19.772C51.6602 20.4754 51.8983 20.4001 52.586 20.6267C52.8206 20.7038 52.9564 20.799 53.0587 21.0175C53.0496 21.2024 53.0209 21.2724 52.9116 21.4216C52.8507 21.4601 52.8262 21.4825 52.7464 21.4972C52.497 21.5448 46.5095 21.5189 46.1705 21.4629C45.938 21.4237 45.7741 21.3726 45.6278 21.1751C45.7244 20.6099 46.3533 20.6499 46.7315 20.2843C47.1649 19.8656 47.3827 19.3041 47.5032 18.7242C47.7651 17.4616 47.6643 16.0312 47.6594 14.742L47.6348 9.52359L45.1859 9.51449C45.1362 8.97553 45.1327 8.43147 45.1187 7.89063L47.5571 7.88937C47.4374 7.52458 47.3183 7.14564 47.2658 6.76433C47.1103 5.63747 47.3722 4.49227 48.0648 3.57921C48.9857 2.36552 50.4669 1.74547 51.9417 1.55478Z" fill="#0B0803"/>
<path d="M41.8061 1.55624C42.7928 1.47319 43.7403 1.54511 44.6254 2.02986C45.3328 2.41726 45.9371 3.05629 46.1542 3.84714C46.2887 4.33722 46.3034 4.95803 46.026 5.40455C45.83 5.72073 45.5022 5.90575 45.1423 5.97319C44.8145 6.03468 44.381 6.03391 44.1072 5.81422C43.589 5.39831 43.9356 4.59864 43.8201 4.04778C43.7508 3.71605 43.4833 3.43467 43.1926 3.27556C42.7353 3.02478 42.0763 2.99431 41.5817 3.14306C41.1711 3.26652 40.8609 3.53509 40.6725 3.91976C40.1264 5.03472 40.5406 6.74296 40.9153 7.85252C42.145 7.92543 43.402 7.86877 44.6359 7.87514C44.6668 8.4253 44.6387 8.96432 44.6058 9.51385C43.3537 9.51105 42.1009 9.51553 40.8485 9.52716C40.7909 11.093 40.7678 12.6598 40.779 14.2267C40.7748 15.8408 40.614 17.6542 41.0875 19.2111C41.6076 20.3509 42.6877 20.5431 42.9426 21.152C42.9034 21.2633 42.9195 21.2822 42.8096 21.3473C42.4146 21.5834 36.4182 21.5371 35.8822 21.4097C35.8616 21.3368 35.834 21.2528 35.8314 21.1772C35.8152 20.7017 36.5648 20.502 36.8529 20.2178C37.2538 19.822 37.4521 19.0887 37.5452 18.5426C37.7544 17.3154 37.688 15.9627 37.6868 14.7193L37.6762 9.52436L35.2338 9.51399C35.1968 8.97189 35.1973 8.43272 35.1996 7.88957C35.9787 7.89811 36.7578 7.8972 37.5368 7.88691C37.4162 7.49012 37.2891 7.09171 37.2279 6.68064C37.0614 5.5626 37.3044 4.45809 37.988 3.54923C38.9064 2.32819 40.3358 1.76248 41.8061 1.55624Z" fill="#0B0803"/>
</g>
<defs>
<clipPath id="clip0_10213_197">
<rect width="83.3545" height="47.8147" fill="white" transform="translate(0 0.292474)"/>
</clipPath>
</defs>
</svg>
