
<svg xmlns="http://www.w3.org/2000/svg" width="84" height="36" fill="none">
  <g clip-path="url(#clip0_8202_62573)">
    <g fill="#0B0803" clip-path="url(#clip1_8202_62573)">
      <path d="M35.839 9.8947c-.3043-3.1133-3.079-5.3877-6.1914-5.075-3.1009.3113-5.365 3.0734-5.0618 6.1752.3033 3.1016 3.0594 5.3728 6.162 5.0781 3.114-.2962 5.3956-3.065 5.0912-6.1783Zm-4.2144-3.7699c.0691-.0002.1206.0138.1848.0313l.0139.0038c.0251.126 0 .1845-.0659.2918-.1154.1877-.2438.3675-.3722.5473-.2266.3173-.4533.6347-.6086.9962-.3367.7839-.2583 1.6982-.179 2.6221.0694.8086.1394 1.6245-.0677 2.3667-.2493.8929-.8749 1.4769-1.6583 1.9125-.0434.0073-.0913.0036-.1374 0a18.7162 18.7162 0 0 1-.0286-.0021l-.0177-.001-.0076-.0143c-.0446-.0849-.0473-.0901-.015-.1867.042-.1253.1254-.2535.2041-.3744.03-.0461.0593-.0912.0854-.1346.2723-.4537.5393-.9438.6228-1.4733.1043-.6612.0488-1.3416-.0068-2.022-.0705-.8634-.1409-1.7271.1153-2.5512.3147-1.0126 1.0516-1.5408 1.9385-2.0121ZM49.1508 26.3191c-.353-3.0221-3.0889-5.1861-6.111-4.8341-3.0236.3519-5.1892 3.0888-4.8361 6.1125.3532 3.0238 3.0911 5.1882 6.1145 4.8342 3.0221-.354 5.1856-3.0904 4.8326-6.1126Zm-6.1026-3.5673c.7311-.0541 1.415.124 2.0048.5625.9544.7096 1.4412 1.8824 1.6025 3.0306.1707 1.2117.1539 2.8945-.6356 3.9092-.4307.5531-.9753.7779-1.6497.8604a2.9935 2.9935 0 0 1-2.0248-.5421c-.9283-.6696-1.4047-1.77-1.5776-2.8724-.197-1.2559-.1897-3.0133.6239-4.0726.4329-.5636.9737-.7879 1.6565-.8756ZM17.756.2756c.9805-.1286 2.0904-.0278 3.0443.2128.5802.1464 1.1591.3454 1.7522.4288.3411.048.6989.0441 1.043.0502.0557.9549.2399 3.2431.1296 4.0842-.1757.034-.3107.0245-.4874.0005-.181-.2093-.2661-.6776-.3748-.949-.3989-.995-1.1875-1.7596-2.1763-2.1652-1.2391-.5082-2.7187-.4429-3.94.0847-1.2827.5541-2.3278 1.6631-2.8372 2.9621-.789 2.012-.7835 4.593.1018 6.5735.6133 1.3722 1.7043 2.5793 3.132 3.115 1.3629.5114 2.844.3602 4.1495-.238.5829-.2974 1.1219-.7396 1.4687-1.3001.1962-.3171.3404-.9198.6516-1.1246l.0866.0344c.3344.4225.4589 1.7436.5688 2.312-1.2583 1.109-2.7763 1.8443-4.4448 2.0638-2.1837.2868-4.4626-.1539-6.2271-1.5155-1.6062-1.2395-2.5818-3.187-2.823-5.1828-.2803-2.3193.2318-4.6599 1.6997-6.5058 1.3527-1.701 3.3423-2.6954 5.4828-2.941ZM58.7648 5.7842c-.5845-.1455-1.292-.224-1.8913-.1498-1.3987.1374-2.5946.6767-3.5033 1.7734a5.9987 5.9987 0 0 0-1.3299 4.3873c.1392 1.3476.759 2.6875 1.8342 3.5399 1.1292.8961 2.7248 1.1487 4.1261.9828 1.2443-.1471 2.3472-.6844 3.1188-1.6889.353-.459.6093-.9778.8115-1.5182-.0248-.0234-.0494-.0477-.0743-.072-.1192-.1173-.2422-.2383-.4026-.287-.0142.0065-.0264.0116-.0372.0162-.0488.0205-.0684.0288-.1088.0902-.6655.9797-1.4281 1.6282-2.6193 1.8509-.9286.1736-1.8515.0139-2.6304-.5327-.6197-.4349-1.1087-1.0769-1.395-1.7754 1.4245-.8446 2.9728-1.6995 4.6115-2.0352.3244-.0664.6551-.1037.9848-.1409.3467-.0391.6922-.0781 1.0279-.1507.2253-.0487.3871-.0945.4638-.3332.1917-.5991-.1108-1.578-.4129-2.0943-.552-.9448-1.5215-1.6006-2.5736-1.8624Zm-1.4491.9533c.2663.0016.5515.0204.8078.0912.4339.1197.8268.3767 1.0384.783.1466.2813.2611.7321.146 1.0398-.0966.2583-.3056.4348-.5368.5714-.2884.17-.6339.2793-.9666.3846a13.5002 13.5002 0 0 0-.3322.1083c-.5815.2008-1.1545.42-1.7086.688-.1267.0563-.2868.1575-.4574.2653-.3204.2023-.6776.4279-.9192.424-.1292-.1081-.1623-.1979-.1759-.3603-.0899-1.0775.344-2.303 1.0409-3.1177.5105-.5962 1.3116-.8166 2.0636-.8776ZM69.2405 5.6814a6.3677 6.3677 0 0 0-1.25-.0472c-1.4192.1158-2.6193.6334-3.5479 1.7383a5.977 5.977 0 0 0-1.3625 4.3917c.125 1.3145.739 2.6588 1.7743 3.5029 1.1145.9089 2.7774 1.2198 4.1802 1.0607 1.2485-.1413 2.3704-.728 3.1498-1.7191.3587-.46.6398-.9759.8314-1.5272a4.1838 4.1838 0 0 1-.0757-.0679c-.1299-.1185-.2827-.2577-.4453-.2707-.6681 1.0062-1.468 1.7142-2.6802 1.9586-.9134.1843-1.8.0498-2.5841-.4706-.6728-.4467-1.1623-1.0973-1.5111-1.818 1.54-1.0477 3.4345-1.8502 5.2654-2.1889.2271-.0421.4578-.0599.6884-.0777.1909-.0148.3817-.0295.5705-.058.2459-.0371.4954-.0933.5505-.3743.155-.7925-.1576-1.7457-.6255-2.3829-.7059-.9612-1.7632-1.4876-2.9282-1.6497ZM67.8881 6.776c.4774-.0378.9422-.0614 1.4023.107.4412.1613.7968.4795.9885.9108.1266.2839.1817.6017.0619.8975-.0682.167-.1932.3187-.3382.4248-.3469.2534-1.2036.5524-1.9488.8125-.3673.1282-.7075.247-.9463.3462-.383.1707-.7521.3779-1.1205.5846-.2044.1147-.4086.2293-.6148.3375-.1728-1.0553-.0646-2.1309.51-3.056.4748-.7636 1.1439-1.1675 2.0059-1.365ZM32.52 18.342c1.1296-.0063 4.3028-.1471 5.1588.0788.0717.0982.065.0998.0562.2222-.1979.3335-.6202.4674-.9131.7064-.169.1376-.3217.334-.3727.5494-.189.7973-.1145 1.719-.1151 2.5379l-.0224 3.4581c-.0059.8251.0198 1.6686-.0769 2.488-.1383 1.1733-.6562 2.2637-1.6042 2.9943-1.1817.9113-2.8313 1.114-4.2756.9181-1.265-.1712-2.4991-.7191-3.2856-1.7574-.7136-.9418-.8943-2.0416-.743-3.1929.04-.2032.091-.3997.1639-.594.2691-.7175.7957-1.3073 1.5059-1.6119.7502-.3215 1.6961-.3451 2.4498-.0205.3668.1575.5979.4291.7327.8046.0825.2295.1096.426.0042.6492-.3039.2873-.9877-.0977-1.4125.0215-.3921.1098-.6918.3845-.8795.7406-.3258.6182-.3336 1.426-.1006 2.0762.2076.5799.678 1.0479 1.2323 1.3042.6579.3041 1.5829.3802 2.2703.1245.5324-.1981.9235-.6214 1.1382-1.1414.1851-.448.2718-.9632.3154-1.4438.0982-1.083.22-7.6242-.0185-8.3317-.2517-.7463-1.1098-.7684-1.3065-1.2227.0001-.1098.0026-.1859.0555-.2821.0139-.0257.0287-.0504.043-.0756ZM55.8574 30.46c.4816-1.1922.8976-2.4207 1.3414-3.6282.3461-.9402.7736-1.9129.9858-2.8914.0452-.2085.0652-.4149.0069-.6229-.1781-.6355-.998-.5846-1.1834-1.0757.0258-.1077.0105-.1544.1135-.2206.1896-.1213 3.5368-.1339 3.9471-.0819.1365.0173.2337.0478.3235.1576.0094.2358-.0478.3435-.26.4637-.3403.1923-.7737.2905-1.0289.6067-.4018.4979-1.915 4.7585-2.2884 5.727l-1.248 3.2375c-.3141.8131-.6082 1.6971-1.0756 2.4366-.2831.4475-.6644.8808-1.1266 1.1471-.6744.3876-1.5295.459-2.2748.2494-.5793-.1633-1.1093-.522-1.3866-1.0677-.2195-.4318-.2736-1.0064-.1124-1.4665.1203-.3429.3981-.6271.729-.7747.2143-.095.5646-.178.7863-.0578.5273.2868.1838 1.2338.386 1.7391.0683.1696.1681.2894.3414.3592.2821.1135.7716-.042 1.0258-.1654.8593-.4192 1.2201-1.77 1.5058-2.6041-.3608.0068-.7779.051-1.1334-.011-.0552-.0095-.1245-.0242-.1739-.0531-.1176-.0683-.1933-.1922-.2542-.3109-.2805-.5468-.4706-1.1823-.6896-1.7579l-1.364-3.5894c-.2684-.7054-.5121-1.4407-.8414-2.1193-.2458-.5058-.5736-1.0226-1.0789-1.3021-.2505-.1381-.5803-.1365-.75-.3876-.0294-.1712.0011-.2752.0541-.4391.9045-.0367 4.5406-.1313 5.2092.0546.0368.1277.0431.3042-.0073.4297-.0799.1985-.4638.2594-.6403.3303-.1906.0767-.3556.1923-.4296.3924-.0814.2211.0273.5767.0908.801.2768.9806.7233 1.9512 1.0909 2.9055.4596 1.1923.874 2.4297 1.4098 3.5899ZM49.4562 1.166c.803-.0418 1.5651.0608 2.2663.481.5121.3068.9459.7684 1.0751 1.3656.0704.3242.0484.6675-.1402.949-.2048.3058-.6187.544-.9822.5896-.2185.0273-.4748-.0024-.6497-.1438-.406-.328-.2169-.9115-.2941-1.3604-.042-.2416-.1675-.4449-.3766-.5758-.3162-.1984-.8104-.264-1.1691-.1644-.3136.0869-.5394.3086-.6839.5945-.4596.9075-.2053 2.0937.0788 3.0115.9633.0239 1.9307.0044 2.8945.0035.0027.409-.0047.811-.0357 1.2188-.9307-.001-1.8635-.0152-2.7931.0204-.0594.9563-.0363 1.928-.0421 2.8865-.0089 1.4346-.1502 3.0183.1786 4.4142.0499.1293.1051.2511.1723.3728.2899.5276.4685.4711.9843.6411.1759.0577.2778.1292.3545.293-.0068.1387-.0284.1912-.1103.3031-.0457.0289-.0641.0457-.124.0567-.1869.0357-4.6776.0163-4.9318-.0257-.1744-.0294-.2973-.0678-.4071-.2159.0725-.4238.5441-.3939.8278-.6681.3251-.314.4884-.7351.5788-1.1701.1964-.9469.1208-2.0197.1171-2.9866l-.0184-3.9138-1.8367-.0068c-.0373-.4043-.0399-.8123-.0504-1.218l1.8288-.0009c-.0898-.2736-.1791-.5578-.2185-.8438-.1166-.845.0799-1.704.5993-2.3888.6907-.9103 1.8015-1.3753 2.9077-1.5183Z"/>
      <path d="M41.8544 1.1672c.74-.0623 1.4507-.0084 2.1146.3552.5304.2906.9837.7698 1.1465 1.363.1009.3675.1119.8331-.0961 1.168-.147.2371-.3929.376-.6628.4265-.2458.0461-.5709.0455-.7763-.1192-.3887-.312-.1287-.9117-.2153-1.3249-.052-.2488-.2527-.4598-.4707-.5791-.3429-.1881-.8372-.211-1.2081-.0994-.308.0926-.5406.294-.6819.5825-.4096.8362-.0989 2.1174.1821 2.9496.9222.0547 1.865.0122 2.7904.017.0231.4126.0021.8168-.0225 1.229a244.65 244.65 0 0 0-2.818.01 80.1154 80.1154 0 0 0-.0521 3.5246c-.0033 1.2106-.1238 2.5706.2313 3.7383.3901.8549 1.2002.999 1.3913 1.4557-.0294.0835-.0173.0977-.0998.1465-.2962.177-4.7934.1423-5.1955.0468-.0154-.0547-.0361-.1177-.0381-.1744-.0121-.3566.5501-.5064.7661-.7196.3008-.2968.4495-.8468.5193-1.2564.1569-.9204.1071-1.9349.1062-2.8674l-.008-3.8962-1.8318-.0078c-.0277-.4066-.0274-.811-.0256-1.2183a72.5396 72.5396 0 0 0 1.7529-.002c-.0904-.2976-.1858-.5964-.2317-.9047-.1249-.8386.0574-1.667.5701-2.3486.6887-.9158 1.7608-1.34 2.8635-1.4947Z"/>
    </g>
  </g>
  <defs>
    <clipPath id="clip0_8202_62573">
      <path fill="#fff" d="M0 0h84v36H0z"/>
    </clipPath>
    <clipPath id="clip1_8202_62573">
      <path fill="#fff" d="M10.5.2194h62.5159v35.861H10.5z"/>
    </clipPath>
  </defs>
</svg>

