<svg xmlns="http://www.w3.org/2000/svg" aria-hidden="true" style="position: absolute; width: 0; height: 0; overflow: hidden;">
  <defs>
    <symbol id="icon-cross" viewBox="0 0 32 32">
      <path d="m21.589 8.459-5.657 5.656-5.656-5.656-1.885 1.885L14.047 16l-5.656 5.656 1.885 1.885 5.656-5.656 5.657 5.656 1.885-1.885L17.818 16l5.656-5.656-1.885-1.885z"/>
    </symbol>
    <symbol id="icon-map-pin" viewBox="0 0 32 32">
      <path d="M16 22.667 17.333 20v-6.856c2.295-.596 4-2.667 4-5.144 0-2.941-2.392-5.333-5.333-5.333S10.667 5.059 10.667 8c0 2.477 1.705 4.548 4 5.144V20L16 22.667zM13.333 8c0-1.471 1.196-2.667 2.667-2.667S18.667 6.529 18.667 8c0 1.471-1.196 2.667-2.667 2.667S13.333 9.471 13.333 8z"/>
      <path d="m21.689 14.084-.711 2.571c3.455.955 5.688 2.791 5.688 4.679 0 2.523-4.38 5.333-10.667 5.333S5.332 23.856 5.332 21.334c0-1.888 2.233-3.724 5.689-4.68l-.711-2.571c-4.716 1.304-7.645 4.081-7.645 7.251 0 4.485 5.857 8 13.333 8s13.333-3.515 13.333-8c0-3.169-2.929-5.947-7.644-7.249z"/>
    </symbol>
    <symbol id="icon-menu" viewBox="0 0 32 32">
      <path d="M5.333 8h21.333v2.667H5.333V8zm0 6.667h21.333v2.667H5.333v-2.667zm0 6.666h21.333V24H5.333v-2.667z"/>
    </symbol>
    <symbol id="icon-phone" viewBox="0 0 32 32">
      <path d="M23.61 16.391c-.124-.124-.271-.222-.432-.289s-.335-.102-.51-.102-.348.035-.51.102-.309.165-.432.289l-2.125 2.125c-.985-.293-2.824-.96-3.989-2.125s-1.832-3.004-2.125-3.989l2.125-2.125c.124-.124.222-.271.289-.432s.102-.335.102-.51-.035-.348-.102-.51-.165-.309-.289-.432L10.279 3.06c-.124-.124-.271-.222-.432-.289s-.335-.102-.51-.102-.348.035-.51.102-.309.165-.432.289L4.779 6.676c-.507.507-.792 1.203-.781 1.913.031 1.899.533 8.493 5.731 13.691s11.792 5.699 13.692 5.731h.037c.704 0 1.369-.277 1.873-.781l3.616-3.616c.124-.124.222-.271.289-.432s.102-.335.102-.51-.035-.349-.102-.51-.165-.309-.289-.432l-5.333-5.335zm-.17 8.949c-1.664-.028-7.357-.475-11.831-4.949C7.121 15.903 6.686 10.19 6.66 8.559l2.673-2.673 3.448 3.448-1.724 1.724c-.157.157-.272.35-.335.562s-.073.437-.027.654c.032.153.815 3.789 3.028 6.003s5.849 2.996 6.003 3.028c.217.047.442.038.654-.025s.406-.179.562-.336l1.725-1.724 3.448 3.448-2.675 2.673z"/>
    </symbol>
    <symbol id="icon-X" viewBox="0 0 32 32">
      <path d="M22.901 5.657h3.68l-8.04 9.037L28 26.991h-7.406l-5.801-7.458-6.637 7.458H4.474l8.6-9.666L4 5.657h7.594l5.243 6.817 6.064-6.817zM21.61 24.824h2.039L10.486 7.709H8.298L21.61 24.824z"/>
    </symbol>
    <symbol id="icon-chevrons-right" viewBox="0 0 32 32">
      <path d="M13.728 10.28 19.495 16l-5.767 5.72 1.877 1.893L23.281 16l-7.676-7.613-1.877 1.893z"/>
      <path d="M8.939 8.387 7.062 10.28 12.829 16l-5.767 5.72 1.877 1.893L16.615 16 8.939 8.387z"/>
    </symbol>
    <symbol id="icon-envelope" viewBox="0 0 32 32">
      <path d="M26.667 5.333H5.334C3.863 5.333 2.667 6.529 2.667 8v16c0 1.471 1.196 2.667 2.667 2.667h21.333c1.471 0 2.667-1.196 2.667-2.667V8c0-1.471-1.196-2.667-2.667-2.667zm0 2.667v.681L16 16.978 5.333 8.682v-.683h21.333zM5.333 24V12.059l9.848 7.66c.233.183.522.283.819.283s.585-.1.819-.283l9.848-7.66L26.67 24H5.334z"/>
    </symbol>
    <symbol id="icon-facebook" viewBox="0 0 32 32">
      <path d="M29.333 16.405C29.333 8.996 23.364 2.99 16 2.99S2.667 8.996 2.667 16.405c0 6.696 4.876 12.245 11.25 13.252v-9.374h-3.385v-3.878h3.385V13.45c0-3.362 1.991-5.219 5.036-5.219 1.459 0 2.985.262 2.985.262v3.301h-1.681c-1.656 0-2.173 1.034-2.173 2.095v2.516h3.698l-.591 3.878h-3.107v9.374c6.374-1.006 11.25-6.556 11.25-13.252z"/>
    </symbol>
    <symbol id="icon-instagram" viewBox="0 0 32 32">
      <path d="M15.998 6.161c3.206 0 3.585.014 4.846.071 1.172.052 1.804.248 2.226.412.558.216.961.478 1.378.895.422.422.679.82.9 1.378.164.422.361 1.059.412 2.226.056 1.266.071 1.645.071 4.847s-.014 3.585-.071 4.847c-.052 1.172-.248 1.804-.412 2.227-.216.558-.478.961-.895 1.377-.422.422-.82.679-1.378.9-.422.164-1.06.361-2.226.412-1.266.056-1.645.071-4.847.071s-3.585-.014-4.847-.071c-1.172-.052-1.804-.248-2.226-.412-.558-.216-.961-.478-1.378-.895-.422-.422-.679-.82-.9-1.378-.164-.422-.361-1.06-.412-2.226-.056-1.266-.071-1.645-.071-4.847s.014-3.585.071-4.847c.052-1.172.248-1.804.412-2.226.216-.558.478-.961.895-1.378.422-.422.82-.679 1.378-.9.422-.164 1.059-.361 2.226-.412 1.261-.056 1.641-.071 4.847-.071h.001zm0-2.16c-3.258 0-3.665.014-4.945.071-1.275.056-2.151.262-2.91.558-.792.309-1.462.717-2.127 1.387-.67.666-1.078 1.336-1.387 2.123-.295.764-.502 1.636-.558 2.91C4.015 12.335 4 12.742 4 15.999s.014 3.665.071 4.945c.056 1.275.262 2.151.558 2.91.31.792.717 1.462 1.387 2.127.665.665 1.336 1.078 2.123 1.383.764.295 1.636.502 2.91.558 1.279.056 1.687.071 4.945.071s3.666-.014 4.945-.071c1.275-.056 2.151-.262 2.91-.558.787-.305 1.458-.717 2.123-1.383s1.078-1.336 1.383-2.123c.295-.764.502-1.635.558-2.91.056-1.279.071-1.687.071-4.945s-.014-3.665-.071-4.945c-.056-1.275-.262-2.151-.558-2.91-.295-.797-.703-1.467-1.373-2.133-.665-.665-1.336-1.078-2.123-1.383-.764-.295-1.635-.502-2.91-.558-1.284-.061-1.692-.075-4.949-.075L15.999 4z"/>
      <path d="M15.998 9.836c-3.402 0-6.163 2.76-6.163 6.163s2.76 6.163 6.163 6.163c3.403 0 6.163-2.76 6.163-6.163s-2.76-6.163-6.163-6.163zm0 10.161c-2.208 0-3.998-1.79-3.998-3.998s1.79-3.998 3.998-3.998 3.998 1.79 3.998 3.998-1.79 3.998-3.998 3.998zM23.843 9.592c0 .795-.644 1.439-1.439 1.439s-1.439-.644-1.439-1.439.644-1.439 1.439-1.439 1.439.644 1.439 1.439z"/>
    </symbol>
    <symbol id="icon-map" viewBox="0 0 32 32">
      <path d="M16 18.667c2.941 0 5.333-2.392 5.333-5.333S18.941 8.001 16 8.001c-2.941 0-5.333 2.392-5.333 5.333s2.392 5.333 5.333 5.333zm0-8c1.471 0 2.667 1.196 2.667 2.667S17.471 16.001 16 16.001c-1.471 0-2.667-1.196-2.667-2.667s1.196-2.667 2.667-2.667z"/>
      <path d="M15.227 29.085c.226.161.496.248.773.248s.548-.087.773-.248c.405-.287 9.932-7.165 9.893-15.752 0-5.881-4.785-10.667-10.667-10.667S5.332 7.451 5.332 13.326c-.039 8.593 9.488 15.472 9.893 15.759zM16 5.333c4.412 0 8 3.588 8 8.007.028 5.917-5.851 11.231-8 12.973-2.148-1.744-8.028-7.059-8-12.98 0-4.412 3.588-8 8-8z"/>
    </symbol>
    <symbol id="icon-star-outline" fill="none" viewBox="0 0 32 32">
      <path stroke-linejoin="miter" stroke-linecap="butt" stroke-miterlimit="4" stroke-width="1.9" d="M15.375 5.076c0.229-0.545 1.021-0.545 1.25 0l2.704 6.424c0.291 0.691 0.947 1.16 1.694 1.219l7.021 0.556c0.61 0.048 0.828 0.78 0.388 1.154l-5.35 4.527c-0.573 0.485-0.826 1.25-0.65 1.98l1.635 6.768c0.133 0.549-0.482 1.031-1.013 0.711h-0.001l-6.009-3.626c-0.641-0.387-1.447-0.387-2.089 0l-6.010 3.626c-0.531 0.32-1.146-0.162-1.013-0.711l1.635-6.768c0.176-0.73-0.077-1.495-0.65-1.98l-5.35-4.527c-0.44-0.373-0.222-1.105 0.388-1.154l7.021-0.556c0.747-0.059 1.403-0.527 1.694-1.219l2.704-6.424z" stroke="#0B0803"></path>
    </symbol>
    <symbol id="icon-star-filled" viewBox="0 0 32 32">
      <path d="M14.761 4.816c.458-1.089 2.019-1.089 2.478 0l2.705 6.425c.193.459.63.772 1.132.812l7.021.556c1.19.094 1.672 1.561.766 2.328l-5.349 4.527c-.382.323-.549.831-.432 1.314l1.634 6.769c.277 1.147-.986 2.053-2.004 1.439l-6.011-3.627a1.3566 1.3566 0 0 0-1.399 0l-6.011 3.627c-1.018.615-2.281-.292-2.004-1.439l1.634-6.769c.117-.483-.05-.991-.432-1.314l-5.35-4.527c-.906-.767-.424-2.234.766-2.328l7.021-.556c.502-.04.938-.353 1.132-.812l2.705-6.425z"/>
    </symbol>
    <symbol id="icon-favicon" viewBox="0 0 32 32">
      <path d="M27.942 14.832C27.296 8.224 21.407 3.397 14.801 4.06 8.22 4.721 3.414 10.583 4.058 17.167s6.493 11.403 13.078 10.778c6.609-.629 11.452-6.505 10.806-13.113zm-8.945-8.001c.146 0 .256.029.392.066l.029.008c.053.267 0 .392-.14.619-.245.398-.517.78-.79 1.162-.481.674-.962 1.347-1.292 2.114-.715 1.664-.548 3.604-.38 5.565.147 1.716.296 3.448-.144 5.023-.529 1.895-1.857 3.135-3.52 4.059-.092.015-.194.008-.292 0-.021-.002-.041-.003-.061-.005-.013-.001-.025-.002-.037-.002l-.016-.03c-.095-.18-.101-.191-.032-.396.089-.266.266-.538.433-.795.064-.098.126-.194.181-.286.578-.963 1.145-2.003 1.322-3.127.222-1.403.104-2.848-.014-4.292-.15-1.832-.299-3.666.245-5.415.668-2.149 2.232-3.27 4.114-4.271z"/>
    </symbol>
  </defs>
</svg>